<?xml version="1.0" encoding="utf-8" standalone="no"?>
<!DOCTYPE svg PUBLIC "-//W3C//DTD SVG 1.1//EN"
  "http://www.w3.org/Graphics/SVG/1.1/DTD/svg11.dtd">
<svg xmlns:xlink="http://www.w3.org/1999/xlink" width="576pt" height="288pt" viewBox="0 0 576 288" xmlns="http://www.w3.org/2000/svg" version="1.1">
 <metadata>
  <rdf:RDF xmlns:dc="http://purl.org/dc/elements/1.1/" xmlns:cc="http://creativecommons.org/ns#" xmlns:rdf="http://www.w3.org/1999/02/22-rdf-syntax-ns#">
   <cc:Work>
    <dc:type rdf:resource="http://purl.org/dc/dcmitype/StillImage"/>
    <dc:date>2025-05-07T13:51:55.087660</dc:date>
    <dc:format>image/svg+xml</dc:format>
    <dc:creator>
     <cc:Agent>
      <dc:title>Matplotlib v3.9.2, https://matplotlib.org/</dc:title>
     </cc:Agent>
    </dc:creator>
   </cc:Work>
  </rdf:RDF>
 </metadata>
 <defs>
  <style type="text/css">*{stroke-linejoin: round; stroke-linecap: butt}</style>
 </defs>
 <g id="figure_1">
  <g id="patch_1">
   <path d="M 0 288 
L 576 288 
L 576 0 
L 0 0 
z
" style="fill: #ffffff"/>
  </g>
  <g id="axes_1">
   <g id="patch_2">
    <path d="M 55.33 238.52 
L 212.136248 238.52 
L 212.136248 36 
L 55.33 36 
z
" style="fill: #ffffff"/>
   </g>
   <g id="matplotlib.axis_1">
    <g id="xtick_1">
     <g id="line2d_1">
      <defs>
       <path id="mbcdc34eb77" d="M 0 0 
L 0 3.5 
" style="stroke: #000000; stroke-width: 0.8"/>
      </defs>
      <g>
       <use xlink:href="#mbcdc34eb77" x="62.457557" y="238.52" style="stroke: #000000; stroke-width: 0.8"/>
      </g>
     </g>
     <g id="text_1">
      <!-- 0 -->
      <g transform="translate(59.276307 253.118437) scale(0.1 -0.1)">
       <defs>
        <path id="DejaVuSans-30" d="M 2034 4250 
Q 1547 4250 1301 3770 
Q 1056 3291 1056 2328 
Q 1056 1369 1301 889 
Q 1547 409 2034 409 
Q 2525 409 2770 889 
Q 3016 1369 3016 2328 
Q 3016 3291 2770 3770 
Q 2525 4250 2034 4250 
z
M 2034 4750 
Q 2819 4750 3233 4129 
Q 3647 3509 3647 2328 
Q 3647 1150 3233 529 
Q 2819 -91 2034 -91 
Q 1250 -91 836 529 
Q 422 1150 422 2328 
Q 422 3509 836 4129 
Q 1250 4750 2034 4750 
z
" transform="scale(0.015625)"/>
       </defs>
       <use xlink:href="#DejaVuSans-30"/>
      </g>
     </g>
    </g>
    <g id="xtick_2">
     <g id="line2d_2">
      <g>
       <use xlink:href="#mbcdc34eb77" x="98.09534" y="238.52" style="stroke: #000000; stroke-width: 0.8"/>
      </g>
     </g>
     <g id="text_2">
      <!-- 50 -->
      <g transform="translate(91.73284 253.118437) scale(0.1 -0.1)">
       <defs>
        <path id="DejaVuSans-35" d="M 691 4666 
L 3169 4666 
L 3169 4134 
L 1269 4134 
L 1269 2991 
Q 1406 3038 1543 3061 
Q 1681 3084 1819 3084 
Q 2600 3084 3056 2656 
Q 3513 2228 3513 1497 
Q 3513 744 3044 326 
Q 2575 -91 1722 -91 
Q 1428 -91 1123 -41 
Q 819 9 494 109 
L 494 744 
Q 775 591 1075 516 
Q 1375 441 1709 441 
Q 2250 441 2565 725 
Q 2881 1009 2881 1497 
Q 2881 1984 2565 2268 
Q 2250 2553 1709 2553 
Q 1456 2553 1204 2497 
Q 953 2441 691 2322 
L 691 4666 
z
" transform="scale(0.015625)"/>
       </defs>
       <use xlink:href="#DejaVuSans-35"/>
       <use xlink:href="#DejaVuSans-30" x="63.623047"/>
      </g>
     </g>
    </g>
    <g id="xtick_3">
     <g id="line2d_3">
      <g>
       <use xlink:href="#mbcdc34eb77" x="133.733124" y="238.52" style="stroke: #000000; stroke-width: 0.8"/>
      </g>
     </g>
     <g id="text_3">
      <!-- 100 -->
      <g transform="translate(124.189374 253.118437) scale(0.1 -0.1)">
       <defs>
        <path id="DejaVuSans-31" d="M 794 531 
L 1825 531 
L 1825 4091 
L 703 3866 
L 703 4441 
L 1819 4666 
L 2450 4666 
L 2450 531 
L 3481 531 
L 3481 0 
L 794 0 
L 794 531 
z
" transform="scale(0.015625)"/>
       </defs>
       <use xlink:href="#DejaVuSans-31"/>
       <use xlink:href="#DejaVuSans-30" x="63.623047"/>
       <use xlink:href="#DejaVuSans-30" x="127.246094"/>
      </g>
     </g>
    </g>
    <g id="xtick_4">
     <g id="line2d_4">
      <g>
       <use xlink:href="#mbcdc34eb77" x="169.370907" y="238.52" style="stroke: #000000; stroke-width: 0.8"/>
      </g>
     </g>
     <g id="text_4">
      <!-- 150 -->
      <g transform="translate(159.827157 253.118437) scale(0.1 -0.1)">
       <use xlink:href="#DejaVuSans-31"/>
       <use xlink:href="#DejaVuSans-35" x="63.623047"/>
       <use xlink:href="#DejaVuSans-30" x="127.246094"/>
      </g>
     </g>
    </g>
    <g id="xtick_5">
     <g id="line2d_5">
      <g>
       <use xlink:href="#mbcdc34eb77" x="205.008691" y="238.52" style="stroke: #000000; stroke-width: 0.8"/>
      </g>
     </g>
     <g id="text_5">
      <!-- 200 -->
      <g transform="translate(195.464941 253.118437) scale(0.1 -0.1)">
       <defs>
        <path id="DejaVuSans-32" d="M 1228 531 
L 3431 531 
L 3431 0 
L 469 0 
L 469 531 
Q 828 903 1448 1529 
Q 2069 2156 2228 2338 
Q 2531 2678 2651 2914 
Q 2772 3150 2772 3378 
Q 2772 3750 2511 3984 
Q 2250 4219 1831 4219 
Q 1534 4219 1204 4116 
Q 875 4013 500 3803 
L 500 4441 
Q 881 4594 1212 4672 
Q 1544 4750 1819 4750 
Q 2544 4750 2975 4387 
Q 3406 4025 3406 3419 
Q 3406 3131 3298 2873 
Q 3191 2616 2906 2266 
Q 2828 2175 2409 1742 
Q 1991 1309 1228 531 
z
" transform="scale(0.015625)"/>
       </defs>
       <use xlink:href="#DejaVuSans-32"/>
       <use xlink:href="#DejaVuSans-30" x="63.623047"/>
       <use xlink:href="#DejaVuSans-30" x="127.246094"/>
      </g>
     </g>
    </g>
   </g>
   <g id="matplotlib.axis_2">
    <g id="ytick_1">
     <g id="line2d_6">
      <defs>
       <path id="m4e8e5ad3df" d="M 0 0 
L -3.5 0 
" style="stroke: #000000; stroke-width: 0.8"/>
      </defs>
      <g>
       <use xlink:href="#m4e8e5ad3df" x="55.33" y="209.49133" style="stroke: #000000; stroke-width: 0.8"/>
      </g>
     </g>
     <g id="text_6">
      <!-- 0.5 -->
      <g transform="translate(32.426875 213.290549) scale(0.1 -0.1)">
       <defs>
        <path id="DejaVuSans-2e" d="M 684 794 
L 1344 794 
L 1344 0 
L 684 0 
L 684 794 
z
" transform="scale(0.015625)"/>
       </defs>
       <use xlink:href="#DejaVuSans-30"/>
       <use xlink:href="#DejaVuSans-2e" x="63.623047"/>
       <use xlink:href="#DejaVuSans-35" x="95.410156"/>
      </g>
     </g>
    </g>
    <g id="ytick_2">
     <g id="line2d_7">
      <g>
       <use xlink:href="#m4e8e5ad3df" x="55.33" y="179.735692" style="stroke: #000000; stroke-width: 0.8"/>
      </g>
     </g>
     <g id="text_7">
      <!-- 1.0 -->
      <g transform="translate(32.426875 183.534911) scale(0.1 -0.1)">
       <use xlink:href="#DejaVuSans-31"/>
       <use xlink:href="#DejaVuSans-2e" x="63.623047"/>
       <use xlink:href="#DejaVuSans-30" x="95.410156"/>
      </g>
     </g>
    </g>
    <g id="ytick_3">
     <g id="line2d_8">
      <g>
       <use xlink:href="#m4e8e5ad3df" x="55.33" y="149.980054" style="stroke: #000000; stroke-width: 0.8"/>
      </g>
     </g>
     <g id="text_8">
      <!-- 1.5 -->
      <g transform="translate(32.426875 153.779273) scale(0.1 -0.1)">
       <use xlink:href="#DejaVuSans-31"/>
       <use xlink:href="#DejaVuSans-2e" x="63.623047"/>
       <use xlink:href="#DejaVuSans-35" x="95.410156"/>
      </g>
     </g>
    </g>
    <g id="ytick_4">
     <g id="line2d_9">
      <g>
       <use xlink:href="#m4e8e5ad3df" x="55.33" y="120.224417" style="stroke: #000000; stroke-width: 0.8"/>
      </g>
     </g>
     <g id="text_9">
      <!-- 2.0 -->
      <g transform="translate(32.426875 124.023635) scale(0.1 -0.1)">
       <use xlink:href="#DejaVuSans-32"/>
       <use xlink:href="#DejaVuSans-2e" x="63.623047"/>
       <use xlink:href="#DejaVuSans-30" x="95.410156"/>
      </g>
     </g>
    </g>
    <g id="ytick_5">
     <g id="line2d_10">
      <g>
       <use xlink:href="#m4e8e5ad3df" x="55.33" y="90.468779" style="stroke: #000000; stroke-width: 0.8"/>
      </g>
     </g>
     <g id="text_10">
      <!-- 2.5 -->
      <g transform="translate(32.426875 94.267998) scale(0.1 -0.1)">
       <use xlink:href="#DejaVuSans-32"/>
       <use xlink:href="#DejaVuSans-2e" x="63.623047"/>
       <use xlink:href="#DejaVuSans-35" x="95.410156"/>
      </g>
     </g>
    </g>
    <g id="ytick_6">
     <g id="line2d_11">
      <g>
       <use xlink:href="#m4e8e5ad3df" x="55.33" y="60.713141" style="stroke: #000000; stroke-width: 0.8"/>
      </g>
     </g>
     <g id="text_11">
      <!-- 3.0 -->
      <g transform="translate(32.426875 64.51236) scale(0.1 -0.1)">
       <defs>
        <path id="DejaVuSans-33" d="M 2597 2516 
Q 3050 2419 3304 2112 
Q 3559 1806 3559 1356 
Q 3559 666 3084 287 
Q 2609 -91 1734 -91 
Q 1441 -91 1130 -33 
Q 819 25 488 141 
L 488 750 
Q 750 597 1062 519 
Q 1375 441 1716 441 
Q 2309 441 2620 675 
Q 2931 909 2931 1356 
Q 2931 1769 2642 2001 
Q 2353 2234 1838 2234 
L 1294 2234 
L 1294 2753 
L 1863 2753 
Q 2328 2753 2575 2939 
Q 2822 3125 2822 3475 
Q 2822 3834 2567 4026 
Q 2313 4219 1838 4219 
Q 1578 4219 1281 4162 
Q 984 4106 628 3988 
L 628 4550 
Q 988 4650 1302 4700 
Q 1616 4750 1894 4750 
Q 2613 4750 3031 4423 
Q 3450 4097 3450 3541 
Q 3450 3153 3228 2886 
Q 3006 2619 2597 2516 
z
" transform="scale(0.015625)"/>
       </defs>
       <use xlink:href="#DejaVuSans-33"/>
       <use xlink:href="#DejaVuSans-2e" x="63.623047"/>
       <use xlink:href="#DejaVuSans-30" x="95.410156"/>
      </g>
     </g>
    </g>
   </g>
   <g id="line2d_12">
    <path d="M 62.457557 236.271404 
L 62.885638 234.077378 
L 63.31372 230.565561 
L 63.884495 223.319076 
L 65.596821 197.253194 
L 66.167596 193.006059 
L 66.595678 191.192298 
L 67.023759 190.106019 
L 67.594535 189.334446 
L 68.16531 188.955408 
L 69.021473 188.727693 
L 70.305717 188.634312 
L 73.444981 188.580361 
L 78.011184 188.577604 
L 79.152735 188.615502 
L 80.151591 188.608046 
L 81.150448 188.566095 
L 82.577386 188.619963 
L 83.576243 188.578839 
L 84.860488 188.621494 
L 86.002038 188.601605 
L 87.143589 188.605489 
L 88.427833 188.6127 
L 89.569384 188.587105 
L 90.853629 188.618285 
L 91.852485 188.596418 
L 92.851342 188.566705 
L 94.27828 188.618617 
L 95.277137 188.566648 
L 96.704075 188.619424 
L 97.702932 188.596393 
L 98.987177 188.603685 
L 100.414115 188.627142 
L 103.838767 188.562836 
L 104.837624 188.605902 
L 105.83648 188.63406 
L 107.120725 188.603529 
L 108.262276 188.606413 
L 109.689214 188.622694 
L 112.685784 188.614121 
L 113.970029 188.570561 
L 115.396967 188.624642 
L 116.538518 188.606499 
L 117.680068 188.605443 
L 120.248557 188.578213 
L 123.958597 188.650406 
L 124.672066 188.645759 
L 125.813616 188.598806 
L 127.240555 188.598038 
L 130.522513 188.609702 
L 131.664063 188.577032 
L 132.66292 188.552199 
L 134.232552 188.637985 
L 135.374103 188.611486 
L 136.658347 188.599432 
L 142.080713 188.586725 
L 143.507651 188.591669 
L 144.506508 188.564687 
L 145.933446 188.62077 
L 146.932303 188.565706 
L 148.216547 188.639014 
L 149.358098 188.600495 
L 150.499649 188.610695 
L 151.926587 188.62197 
L 154.923157 188.608749 
L 156.207402 188.574045 
L 157.63434 188.621696 
L 158.775891 188.606136 
L 159.917441 188.605133 
L 162.343236 188.581944 
L 165.767888 188.587303 
L 166.909439 188.647357 
L 168.05099 188.598022 
L 169.477928 188.598422 
L 172.759886 188.609169 
L 173.901437 188.578249 
L 174.900293 188.552299 
L 176.469925 188.637737 
L 177.611476 188.610862 
L 178.895721 188.599481 
L 182.60576 188.626108 
L 189.740451 188.649181 
L 190.453921 188.639048 
L 191.595471 188.599825 
L 192.737022 188.611209 
L 194.16396 188.621773 
L 197.160531 188.609845 
L 198.444775 188.573649 
L 199.871713 188.621827 
L 201.013264 188.605552 
L 202.154814 188.605495 
L 203.86714 188.621485 
L 205.008691 188.603846 
L 205.008691 188.603846 
" clip-path="url(#pb134154d25)" style="fill: none; stroke: #10d1d1; stroke-width: 1.5; stroke-linecap: square"/>
   </g>
   <g id="line2d_13">
    <path d="M 62.457557 236.271404 
L 62.885638 234.097782 
L 63.31372 230.655408 
L 63.884495 223.702905 
L 65.454127 201.971431 
L 66.024902 198.17469 
L 66.452984 196.641211 
L 66.881065 195.781824 
L 67.309147 195.335242 
L 67.879922 195.047307 
L 68.736085 194.93403 
L 70.591105 194.914796 
L 79.438122 194.967821 
L 80.436979 194.908364 
L 81.435836 194.929092 
L 82.434693 194.965282 
L 83.576243 194.912352 
L 85.003182 194.937039 
L 86.144732 194.942568 
L 87.286283 194.927063 
L 89.997466 194.904454 
L 110.545377 194.924161 
L 111.972315 194.950264 
L 113.113866 194.903114 
L 114.112723 194.919403 
L 115.254273 194.967183 
L 116.538518 194.936558 
L 117.822762 194.928964 
L 120.962026 194.928419 
L 122.388965 194.905793 
L 123.530515 194.921657 
L 124.672066 194.97091 
L 125.95631 194.939206 
L 127.240555 194.929154 
L 130.665207 194.946565 
L 131.806757 194.896838 
L 132.805614 194.90322 
L 134.089858 194.980263 
L 135.374103 194.940921 
L 136.801041 194.927704 
L 145.219977 194.983958 
L 145.933446 194.949044 
L 146.932303 194.900864 
L 148.359241 194.948987 
L 149.500792 194.942541 
L 150.642343 194.931934 
L 153.496219 194.914095 
L 157.63434 194.949855 
L 158.775891 194.93624 
L 160.060135 194.928603 
L 163.199399 194.927109 
L 164.626338 194.907971 
L 165.767888 194.919761 
L 166.909439 194.972309 
L 168.193683 194.938479 
L 169.477928 194.92949 
L 172.90258 194.946145 
L 174.04413 194.89795 
L 175.042987 194.903017 
L 176.469925 194.96389 
L 177.611476 194.940375 
L 179.038414 194.927611 
L 187.314656 194.967582 
L 188.170819 194.949356 
L 189.169676 194.900816 
L 190.596614 194.949055 
L 191.738165 194.94194 
L 192.879716 194.932239 
L 195.590898 194.911416 
L 204.152528 194.942998 
L 205.008691 194.934236 
L 205.008691 194.934236 
" clip-path="url(#pb134154d25)" style="fill: none; stroke: #cd0707; stroke-width: 1.5; stroke-linecap: square"/>
   </g>
   <g id="patch_3">
    <path d="M 55.33 238.52 
L 55.33 36 
" style="fill: none; stroke: #000000; stroke-width: 0.8; stroke-linejoin: miter; stroke-linecap: square"/>
   </g>
   <g id="patch_4">
    <path d="M 212.136248 238.52 
L 212.136248 36 
" style="fill: none; stroke: #000000; stroke-width: 0.8; stroke-linejoin: miter; stroke-linecap: square"/>
   </g>
   <g id="patch_5">
    <path d="M 55.33 238.52 
L 212.136248 238.52 
" style="fill: none; stroke: #000000; stroke-width: 0.8; stroke-linejoin: miter; stroke-linecap: square"/>
   </g>
   <g id="patch_6">
    <path d="M 55.33 36 
L 212.136248 36 
" style="fill: none; stroke: #000000; stroke-width: 0.8; stroke-linejoin: miter; stroke-linecap: square"/>
   </g>
   <g id="text_12">
    <!-- $\gamma$ = 0 -->
    <g transform="translate(133.733124 43.578125) scale(0.1 -0.1)">
     <defs>
      <path id="DejaVuSans-Oblique-3b3" d="M 1491 2950 
L 1838 788 
L 3456 3500 
L 4066 3500 
L 1972 0 
L 1713 -1331 
L 1138 -1331 
L 1397 0 
L 988 2613 
Q 925 3006 628 3006 
L 475 3006 
L 569 3500 
L 788 3500 
Q 1403 3500 1491 2950 
z
" transform="scale(0.015625)"/>
      <path id="DejaVuSans-20" transform="scale(0.015625)"/>
      <path id="DejaVuSans-3d" d="M 678 2906 
L 4684 2906 
L 4684 2381 
L 678 2381 
L 678 2906 
z
M 678 1631 
L 4684 1631 
L 4684 1100 
L 678 1100 
L 678 1631 
z
" transform="scale(0.015625)"/>
     </defs>
     <use xlink:href="#DejaVuSans-Oblique-3b3" transform="translate(0 0.78125)"/>
     <use xlink:href="#DejaVuSans-20" transform="translate(59.179688 0.78125)"/>
     <use xlink:href="#DejaVuSans-3d" transform="translate(90.966797 0.78125)"/>
     <use xlink:href="#DejaVuSans-20" transform="translate(174.755859 0.78125)"/>
     <use xlink:href="#DejaVuSans-30" transform="translate(206.542969 0.78125)"/>
    </g>
   </g>
  </g>
  <g id="axes_2">
   <g id="patch_7">
    <path d="M 230.053333 238.52 
L 386.859581 238.52 
L 386.859581 36 
L 230.053333 36 
z
" style="fill: #ffffff"/>
   </g>
   <g id="matplotlib.axis_3">
    <g id="xtick_6">
     <g id="line2d_14">
      <g>
       <use xlink:href="#mbcdc34eb77" x="237.18089" y="238.52" style="stroke: #000000; stroke-width: 0.8"/>
      </g>
     </g>
     <g id="text_13">
      <!-- 0 -->
      <g transform="translate(233.99964 253.118437) scale(0.1 -0.1)">
       <use xlink:href="#DejaVuSans-30"/>
      </g>
     </g>
    </g>
    <g id="xtick_7">
     <g id="line2d_15">
      <g>
       <use xlink:href="#mbcdc34eb77" x="272.818674" y="238.52" style="stroke: #000000; stroke-width: 0.8"/>
      </g>
     </g>
     <g id="text_14">
      <!-- 50 -->
      <g transform="translate(266.456174 253.118437) scale(0.1 -0.1)">
       <use xlink:href="#DejaVuSans-35"/>
       <use xlink:href="#DejaVuSans-30" x="63.623047"/>
      </g>
     </g>
    </g>
    <g id="xtick_8">
     <g id="line2d_16">
      <g>
       <use xlink:href="#mbcdc34eb77" x="308.456457" y="238.52" style="stroke: #000000; stroke-width: 0.8"/>
      </g>
     </g>
     <g id="text_15">
      <!-- 100 -->
      <g transform="translate(298.912707 253.118437) scale(0.1 -0.1)">
       <use xlink:href="#DejaVuSans-31"/>
       <use xlink:href="#DejaVuSans-30" x="63.623047"/>
       <use xlink:href="#DejaVuSans-30" x="127.246094"/>
      </g>
     </g>
    </g>
    <g id="xtick_9">
     <g id="line2d_17">
      <g>
       <use xlink:href="#mbcdc34eb77" x="344.094241" y="238.52" style="stroke: #000000; stroke-width: 0.8"/>
      </g>
     </g>
     <g id="text_16">
      <!-- 150 -->
      <g transform="translate(334.550491 253.118437) scale(0.1 -0.1)">
       <use xlink:href="#DejaVuSans-31"/>
       <use xlink:href="#DejaVuSans-35" x="63.623047"/>
       <use xlink:href="#DejaVuSans-30" x="127.246094"/>
      </g>
     </g>
    </g>
    <g id="xtick_10">
     <g id="line2d_18">
      <g>
       <use xlink:href="#mbcdc34eb77" x="379.732024" y="238.52" style="stroke: #000000; stroke-width: 0.8"/>
      </g>
     </g>
     <g id="text_17">
      <!-- 200 -->
      <g transform="translate(370.188274 253.118437) scale(0.1 -0.1)">
       <use xlink:href="#DejaVuSans-32"/>
       <use xlink:href="#DejaVuSans-30" x="63.623047"/>
       <use xlink:href="#DejaVuSans-30" x="127.246094"/>
      </g>
     </g>
    </g>
   </g>
   <g id="matplotlib.axis_4">
    <g id="ytick_7">
     <g id="line2d_19">
      <g>
       <use xlink:href="#m4e8e5ad3df" x="230.053333" y="209.49133" style="stroke: #000000; stroke-width: 0.8"/>
      </g>
     </g>
    </g>
    <g id="ytick_8">
     <g id="line2d_20">
      <g>
       <use xlink:href="#m4e8e5ad3df" x="230.053333" y="179.735692" style="stroke: #000000; stroke-width: 0.8"/>
      </g>
     </g>
    </g>
    <g id="ytick_9">
     <g id="line2d_21">
      <g>
       <use xlink:href="#m4e8e5ad3df" x="230.053333" y="149.980054" style="stroke: #000000; stroke-width: 0.8"/>
      </g>
     </g>
    </g>
    <g id="ytick_10">
     <g id="line2d_22">
      <g>
       <use xlink:href="#m4e8e5ad3df" x="230.053333" y="120.224417" style="stroke: #000000; stroke-width: 0.8"/>
      </g>
     </g>
    </g>
    <g id="ytick_11">
     <g id="line2d_23">
      <g>
       <use xlink:href="#m4e8e5ad3df" x="230.053333" y="90.468779" style="stroke: #000000; stroke-width: 0.8"/>
      </g>
     </g>
    </g>
    <g id="ytick_12">
     <g id="line2d_24">
      <g>
       <use xlink:href="#m4e8e5ad3df" x="230.053333" y="60.713141" style="stroke: #000000; stroke-width: 0.8"/>
      </g>
     </g>
    </g>
   </g>
   <g id="line2d_25">
    <path d="M 237.18089 236.271404 
L 237.608972 233.914346 
L 238.037053 229.835267 
L 238.465135 223.049514 
L 238.893216 212.493595 
L 239.463991 191.87636 
L 240.748236 140.87359 
L 241.176317 131.851123 
L 241.461705 128.755623 
L 241.747093 127.623677 
L 241.889786 127.681927 
L 242.175174 128.844757 
L 242.603256 132.665468 
L 243.316725 142.033625 
L 245.314438 169.650545 
L 246.313295 179.988754 
L 247.169458 186.732375 
L 248.025621 191.743338 
L 248.73909 194.76671 
L 249.452559 196.873441 
L 250.023335 197.961281 
L 250.59411 198.558691 
L 251.022191 198.707638 
L 251.450273 198.615105 
L 251.878354 198.296271 
L 252.44913 197.548783 
L 253.162599 196.161068 
L 254.018762 193.953905 
L 257.443414 184.24629 
L 258.156883 182.985774 
L 258.727658 182.326085 
L 259.298433 181.975822 
L 259.869209 181.917621 
L 260.439984 182.129387 
L 261.010759 182.584297 
L 261.724228 183.44634 
L 262.865779 185.270535 
L 266.005043 190.551322 
L 267.0039 191.744241 
L 267.860063 192.431519 
L 268.573532 192.739438 
L 269.287001 192.803474 
L 270.000471 192.636458 
L 270.71394 192.251598 
L 271.570103 191.531223 
L 272.711653 190.240328 
L 275.422836 187.027544 
L 276.421693 186.233739 
L 277.277856 185.831792 
L 277.991325 185.708298 
L 278.847488 185.806499 
L 279.846345 186.201188 
L 280.987895 186.923352 
L 285.411404 190.060103 
L 286.410261 190.39085 
L 287.409118 190.487075 
L 288.407974 190.35925 
L 289.549525 189.99451 
L 291.119157 189.230639 
L 293.973034 187.801069 
L 295.257278 187.428009 
L 296.398829 187.301971 
L 297.540379 187.378095 
L 298.824624 187.678396 
L 300.822337 188.411775 
L 302.962745 189.132012 
L 304.532377 189.424088 
L 305.959315 189.457857 
L 307.671641 189.252194 
L 309.954742 188.708835 
L 312.380537 188.174841 
L 314.235557 188.000315 
L 315.947883 188.067814 
L 318.230984 188.407598 
L 321.941024 188.946212 
L 323.938738 189.00736 
L 326.64992 188.816491 
L 332.357673 188.285059 
L 334.783469 188.363454 
L 342.203548 188.845381 
L 345.342812 188.630758 
L 349.76632 188.389797 
L 352.762891 188.49694 
L 359.612195 188.788691 
L 363.750316 188.640611 
L 370.885007 188.449839 
L 374.880434 188.745288 
L 379.446637 188.700961 
L 379.732024 188.688482 
L 379.732024 188.688482 
" clip-path="url(#p297918189d)" style="fill: none; stroke: #10d1d1; stroke-width: 1.5; stroke-linecap: square"/>
   </g>
   <g id="line2d_26">
    <path d="M 237.18089 236.271404 
L 237.608972 233.936074 
L 238.037053 229.941488 
L 238.465135 223.431443 
L 238.893216 213.664399 
L 239.749379 186.607074 
L 240.320154 171.45168 
L 240.748236 165.841772 
L 241.033623 164.920257 
L 241.176317 165.159435 
L 241.461705 166.66853 
L 242.175174 173.049991 
L 243.174031 181.924508 
L 243.744806 185.289612 
L 244.315581 187.366206 
L 244.743663 188.189975 
L 245.171744 188.502625 
L 245.457132 188.469805 
L 245.885214 188.117695 
L 246.455989 187.248369 
L 247.59754 184.921846 
L 248.596396 183.063685 
L 249.167172 182.378066 
L 249.595253 182.107384 
L 250.023335 182.062611 
L 250.451416 182.243701 
L 250.879498 182.640758 
L 251.450273 183.484377 
L 252.163742 184.983519 
L 253.162599 187.702618 
L 257.158026 199.379812 
L 258.014189 201.022203 
L 258.727658 201.991898 
L 259.298433 202.484112 
L 259.869209 202.697224 
L 260.439984 202.628016 
L 261.010759 202.293754 
L 261.724228 201.562654 
L 262.437698 200.53448 
L 263.436554 198.642903 
L 267.146594 190.99312 
L 267.860063 190.135564 
L 268.573532 189.627989 
L 269.144308 189.488972 
L 269.715083 189.589482 
L 270.428552 189.999221 
L 271.284715 190.825274 
L 272.283572 192.136319 
L 275.56553 196.737675 
L 276.564387 197.658484 
L 277.42055 198.149026 
L 278.134019 198.33426 
L 278.847488 198.322653 
L 279.703651 198.07031 
L 280.559814 197.580439 
L 281.701364 196.632344 
L 285.26871 193.361881 
L 286.267567 192.824395 
L 287.12373 192.588707 
L 287.979893 192.573598 
L 288.836056 192.773481 
L 289.977606 193.301597 
L 291.547239 194.289799 
L 293.973034 195.82476 
L 295.257278 196.326221 
L 296.398829 196.542867 
L 297.397686 196.499462 
L 298.539236 196.196127 
L 300.53695 195.341245 
L 303.390826 194.204274 
L 304.675071 193.942768 
L 305.959315 193.890107 
L 307.386254 194.040253 
L 309.098579 194.462195 
L 312.808619 195.491409 
L 314.378251 195.665725 
L 315.947883 195.595581 
L 318.088291 195.22865 
L 322.226412 194.503661 
L 324.081431 194.442233 
L 326.507226 194.613368 
L 333.213836 195.328532 
L 335.21155 195.199031 
L 341.204691 194.603699 
L 343.487792 194.685457 
L 350.907871 195.181147 
L 353.619054 195.0392 
L 358.756032 194.72483 
L 361.609908 194.7874 
L 369.315375 195.143704 
L 374.452353 194.799031 
L 377.163535 194.530358 
L 378.733168 194.659041 
L 379.732024 194.76429 
L 379.732024 194.76429 
" clip-path="url(#p297918189d)" style="fill: none; stroke: #cd0707; stroke-width: 1.5; stroke-linecap: square"/>
   </g>
   <g id="patch_8">
    <path d="M 230.053333 238.52 
L 230.053333 36 
" style="fill: none; stroke: #000000; stroke-width: 0.8; stroke-linejoin: miter; stroke-linecap: square"/>
   </g>
   <g id="patch_9">
    <path d="M 386.859581 238.52 
L 386.859581 36 
" style="fill: none; stroke: #000000; stroke-width: 0.8; stroke-linejoin: miter; stroke-linecap: square"/>
   </g>
   <g id="patch_10">
    <path d="M 230.053333 238.52 
L 386.859581 238.52 
" style="fill: none; stroke: #000000; stroke-width: 0.8; stroke-linejoin: miter; stroke-linecap: square"/>
   </g>
   <g id="patch_11">
    <path d="M 230.053333 36 
L 386.859581 36 
" style="fill: none; stroke: #000000; stroke-width: 0.8; stroke-linejoin: miter; stroke-linecap: square"/>
   </g>
   <g id="text_18">
    <!-- $\gamma$ = 0.8 -->
    <g transform="translate(308.456457 43.578125) scale(0.1 -0.1)">
     <defs>
      <path id="DejaVuSans-38" d="M 2034 2216 
Q 1584 2216 1326 1975 
Q 1069 1734 1069 1313 
Q 1069 891 1326 650 
Q 1584 409 2034 409 
Q 2484 409 2743 651 
Q 3003 894 3003 1313 
Q 3003 1734 2745 1975 
Q 2488 2216 2034 2216 
z
M 1403 2484 
Q 997 2584 770 2862 
Q 544 3141 544 3541 
Q 544 4100 942 4425 
Q 1341 4750 2034 4750 
Q 2731 4750 3128 4425 
Q 3525 4100 3525 3541 
Q 3525 3141 3298 2862 
Q 3072 2584 2669 2484 
Q 3125 2378 3379 2068 
Q 3634 1759 3634 1313 
Q 3634 634 3220 271 
Q 2806 -91 2034 -91 
Q 1263 -91 848 271 
Q 434 634 434 1313 
Q 434 1759 690 2068 
Q 947 2378 1403 2484 
z
M 1172 3481 
Q 1172 3119 1398 2916 
Q 1625 2713 2034 2713 
Q 2441 2713 2670 2916 
Q 2900 3119 2900 3481 
Q 2900 3844 2670 4047 
Q 2441 4250 2034 4250 
Q 1625 4250 1398 4047 
Q 1172 3844 1172 3481 
z
" transform="scale(0.015625)"/>
     </defs>
     <use xlink:href="#DejaVuSans-Oblique-3b3" transform="translate(0 0.78125)"/>
     <use xlink:href="#DejaVuSans-20" transform="translate(59.179688 0.78125)"/>
     <use xlink:href="#DejaVuSans-3d" transform="translate(90.966797 0.78125)"/>
     <use xlink:href="#DejaVuSans-20" transform="translate(174.755859 0.78125)"/>
     <use xlink:href="#DejaVuSans-30" transform="translate(206.542969 0.78125)"/>
     <use xlink:href="#DejaVuSans-2e" transform="translate(270.166016 0.78125)"/>
     <use xlink:href="#DejaVuSans-38" transform="translate(299.328125 0.78125)"/>
    </g>
   </g>
  </g>
  <g id="axes_3">
   <g id="patch_12">
    <path d="M 404.776667 238.52 
L 561.582914 238.52 
L 561.582914 36 
L 404.776667 36 
z
" style="fill: #ffffff"/>
   </g>
   <g id="matplotlib.axis_5">
    <g id="xtick_11">
     <g id="line2d_27">
      <g>
       <use xlink:href="#mbcdc34eb77" x="411.904223" y="238.52" style="stroke: #000000; stroke-width: 0.8"/>
      </g>
     </g>
     <g id="text_19">
      <!-- 0 -->
      <g transform="translate(408.722973 253.118437) scale(0.1 -0.1)">
       <use xlink:href="#DejaVuSans-30"/>
      </g>
     </g>
    </g>
    <g id="xtick_12">
     <g id="line2d_28">
      <g>
       <use xlink:href="#mbcdc34eb77" x="447.542007" y="238.52" style="stroke: #000000; stroke-width: 0.8"/>
      </g>
     </g>
     <g id="text_20">
      <!-- 50 -->
      <g transform="translate(441.179507 253.118437) scale(0.1 -0.1)">
       <use xlink:href="#DejaVuSans-35"/>
       <use xlink:href="#DejaVuSans-30" x="63.623047"/>
      </g>
     </g>
    </g>
    <g id="xtick_13">
     <g id="line2d_29">
      <g>
       <use xlink:href="#mbcdc34eb77" x="483.179791" y="238.52" style="stroke: #000000; stroke-width: 0.8"/>
      </g>
     </g>
     <g id="text_21">
      <!-- 100 -->
      <g transform="translate(473.636041 253.118437) scale(0.1 -0.1)">
       <use xlink:href="#DejaVuSans-31"/>
       <use xlink:href="#DejaVuSans-30" x="63.623047"/>
       <use xlink:href="#DejaVuSans-30" x="127.246094"/>
      </g>
     </g>
    </g>
    <g id="xtick_14">
     <g id="line2d_30">
      <g>
       <use xlink:href="#mbcdc34eb77" x="518.817574" y="238.52" style="stroke: #000000; stroke-width: 0.8"/>
      </g>
     </g>
     <g id="text_22">
      <!-- 150 -->
      <g transform="translate(509.273824 253.118437) scale(0.1 -0.1)">
       <use xlink:href="#DejaVuSans-31"/>
       <use xlink:href="#DejaVuSans-35" x="63.623047"/>
       <use xlink:href="#DejaVuSans-30" x="127.246094"/>
      </g>
     </g>
    </g>
    <g id="xtick_15">
     <g id="line2d_31">
      <g>
       <use xlink:href="#mbcdc34eb77" x="554.455358" y="238.52" style="stroke: #000000; stroke-width: 0.8"/>
      </g>
     </g>
     <g id="text_23">
      <!-- 200 -->
      <g transform="translate(544.911608 253.118437) scale(0.1 -0.1)">
       <use xlink:href="#DejaVuSans-32"/>
       <use xlink:href="#DejaVuSans-30" x="63.623047"/>
       <use xlink:href="#DejaVuSans-30" x="127.246094"/>
      </g>
     </g>
    </g>
   </g>
   <g id="matplotlib.axis_6">
    <g id="ytick_13">
     <g id="line2d_32">
      <g>
       <use xlink:href="#m4e8e5ad3df" x="404.776667" y="209.49133" style="stroke: #000000; stroke-width: 0.8"/>
      </g>
     </g>
    </g>
    <g id="ytick_14">
     <g id="line2d_33">
      <g>
       <use xlink:href="#m4e8e5ad3df" x="404.776667" y="179.735692" style="stroke: #000000; stroke-width: 0.8"/>
      </g>
     </g>
    </g>
    <g id="ytick_15">
     <g id="line2d_34">
      <g>
       <use xlink:href="#m4e8e5ad3df" x="404.776667" y="149.980054" style="stroke: #000000; stroke-width: 0.8"/>
      </g>
     </g>
    </g>
    <g id="ytick_16">
     <g id="line2d_35">
      <g>
       <use xlink:href="#m4e8e5ad3df" x="404.776667" y="120.224417" style="stroke: #000000; stroke-width: 0.8"/>
      </g>
     </g>
    </g>
    <g id="ytick_17">
     <g id="line2d_36">
      <g>
       <use xlink:href="#m4e8e5ad3df" x="404.776667" y="90.468779" style="stroke: #000000; stroke-width: 0.8"/>
      </g>
     </g>
    </g>
    <g id="ytick_18">
     <g id="line2d_37">
      <g>
       <use xlink:href="#m4e8e5ad3df" x="404.776667" y="60.713141" style="stroke: #000000; stroke-width: 0.8"/>
      </g>
     </g>
    </g>
   </g>
   <g id="line2d_38">
    <path d="M 411.904223 236.271404 
L 412.332305 233.871964 
L 412.760386 229.63183 
L 413.188468 222.326215 
L 413.616549 210.295297 
L 414.044631 191.793176 
L 414.615406 156.094857 
L 416.042344 56.448623 
L 416.470426 40.267094 
L 416.755814 36 
L 416.898507 36.010942 
L 417.041201 37.491964 
L 417.326589 44.706501 
L 417.75467 64.118393 
L 419.752384 173.718606 
L 420.465853 195.322981 
L 421.179322 209.366431 
L 421.892791 218.711121 
L 422.60626 225.2621 
L 423.31973 229.947683 
L 424.033199 233.143146 
L 424.603974 234.705783 
L 425.174749 235.650642 
L 425.745525 236.165282 
L 426.173606 236.304291 
L 426.601688 236.263127 
L 427.172463 235.938479 
L 427.743238 235.275389 
L 428.314014 234.183434 
L 428.884789 232.454712 
L 429.455564 229.755447 
L 430.02634 225.597333 
L 430.597115 219.139419 
L 431.16789 209.239188 
L 431.738665 194.488009 
L 432.309441 173.396081 
L 433.02291 137.659946 
L 434.164461 78.047366 
L 434.592542 67.187053 
L 434.735236 65.957042 
L 434.87793 65.981975 
L 435.020624 67.252586 
L 435.306011 73.343108 
L 435.734093 89.601346 
L 437.589112 172.397235 
L 438.159888 187.505338 
L 438.873357 200.308749 
L 439.444132 207.084911 
L 440.014908 211.712911 
L 440.585683 214.778104 
L 441.156458 216.799227 
L 441.869927 218.513744 
L 443.011478 221.007861 
L 443.582253 222.939599 
L 444.438416 226.947367 
L 445.437273 231.48916 
L 446.008048 233.082779 
L 446.43613 233.729925 
L 446.864211 233.961531 
L 447.149599 233.913804 
L 447.57768 233.543318 
L 448.005762 232.78916 
L 448.433843 231.575741 
L 448.861925 229.77436 
L 449.290006 227.183515 
L 449.718088 223.504346 
L 450.288863 216.195883 
L 450.859638 204.877401 
L 451.430414 187.921346 
L 452.001189 163.87149 
L 452.857352 115.786586 
L 453.570821 77.554015 
L 453.998903 64.736276 
L 454.28429 62.507502 
L 454.426984 63.471019 
L 454.712372 69.215043 
L 455.140453 85.342246 
L 457.138167 175.427107 
L 457.851636 192.97338 
L 458.422411 202.20737 
L 458.993187 208.383636 
L 459.563962 212.458173 
L 460.134737 215.123771 
L 460.705513 216.696198 
L 461.133594 217.236274 
L 461.561676 217.411881 
L 461.989757 217.327755 
L 463.274002 216.853455 
L 463.559389 217.031404 
L 463.844777 217.467807 
L 464.272858 218.690935 
L 464.843634 221.314078 
L 466.413266 229.506002 
L 466.841347 230.646414 
L 467.269429 231.196077 
L 467.554816 231.251422 
L 467.840204 231.079794 
L 468.125592 230.676677 
L 468.553673 229.601154 
L 468.981755 227.865391 
L 469.409836 225.293179 
L 469.837918 221.619887 
L 470.408693 214.344563 
L 470.979468 203.237347 
L 471.550244 186.831002 
L 472.121019 163.980821 
L 473.119876 111.656496 
L 473.833345 79.374925 
L 474.118732 72.406767 
L 474.40412 70.058137 
L 474.546814 70.707058 
L 474.832202 75.539946 
L 475.260283 89.813873 
L 477.400691 178.166573 
L 478.11416 193.988283 
L 478.684935 202.401224 
L 479.25571 208.083831 
L 479.826486 211.793881 
L 480.397261 214.132427 
L 480.968036 215.471832 
L 481.396118 215.914426 
L 481.824199 215.9625 
L 482.252281 215.748023 
L 483.536525 214.902775 
L 483.821913 215.008392 
L 484.1073 215.356197 
L 484.392688 216.014347 
L 484.82077 217.630033 
L 485.534239 221.608574 
L 486.675789 227.983126 
L 487.103871 229.396555 
L 487.531952 230.151453 
L 487.81734 230.309166 
L 488.102728 230.199403 
L 488.388115 229.839995 
L 488.816197 228.826831 
L 489.244278 227.139255 
L 489.67236 224.615667 
L 490.243135 219.516151 
L 490.81391 211.604282 
L 491.384686 199.674194 
L 491.955461 182.42863 
L 492.66893 152.195319 
L 494.095868 84.135988 
L 494.52395 75.050011 
L 494.666644 74.302468 
L 494.809338 74.69044 
L 495.094725 78.589184 
L 495.522807 90.973989 
L 496.236276 121.865556 
L 497.235133 163.2511 
L 497.948602 183.736922 
L 498.662071 197.28316 
L 499.232846 204.40865 
L 499.803622 209.200412 
L 500.374397 212.371197 
L 500.945172 214.328828 
L 501.373254 215.110329 
L 501.801335 215.463258 
L 502.229417 215.491274 
L 502.800192 215.220836 
L 503.513661 214.837895 
L 503.799049 214.822209 
L 504.084436 215.006593 
L 504.369824 215.461995 
L 504.797906 216.726336 
L 505.368681 219.433272 
L 507.081007 228.756299 
L 507.509088 229.861902 
L 507.93717 230.356258 
L 508.222557 230.360404 
L 508.507945 230.123937 
L 508.936027 229.30185 
L 509.364108 227.848219 
L 509.79219 225.6249 
L 510.220271 222.417159 
L 510.791046 216.045313 
L 511.361822 206.314852 
L 511.932597 191.932217 
L 512.503372 171.646636 
L 513.216841 138.078307 
L 514.358392 84.367329 
L 514.786473 75.155956 
L 514.929167 74.218731 
L 515.071861 74.395642 
L 515.214555 75.679234 
L 515.499943 81.416742 
L 515.928024 96.319533 
L 517.925738 176.624465 
L 518.639207 192.579344 
L 519.209982 201.15482 
L 519.780757 207.051093 
L 520.351533 210.956014 
L 520.922308 213.388532 
L 521.493083 214.758742 
L 521.921165 215.267448 
L 522.349246 215.431084 
L 522.777328 215.311257 
L 523.776185 214.798427 
L 524.061572 214.856596 
L 524.34696 215.104204 
L 524.632348 215.589797 
L 525.060429 216.864103 
L 525.631204 219.603649 
L 527.200837 228.179568 
L 527.771612 229.875484 
L 528.199693 230.475016 
L 528.485081 230.501391 
L 528.770469 230.276953 
L 529.19855 229.470773 
L 529.626632 228.037739 
L 530.054713 225.842794 
L 530.482795 222.670292 
L 531.05357 216.362137 
L 531.624345 206.71292 
L 532.195121 192.406493 
L 532.765896 172.202158 
L 533.479365 138.592085 
L 534.620916 84.155794 
L 535.048997 74.657352 
L 535.191691 73.672268 
L 535.334385 73.846352 
L 535.477079 75.183865 
L 535.762466 81.00343 
L 536.190548 95.842547 
L 538.188261 176.181864 
L 538.90173 192.348439 
L 539.472506 201.037991 
L 540.043281 206.965306 
L 540.614056 210.870156 
L 541.184832 213.353342 
L 541.755607 214.811062 
L 542.183688 215.349739 
L 542.61177 215.481749 
L 543.039851 215.350608 
L 544.181402 214.780252 
L 544.46679 214.862492 
L 544.752177 215.152086 
L 545.037565 215.712083 
L 545.465647 217.152007 
L 546.036422 220.096699 
L 547.46336 228.136129 
L 547.891442 229.564635 
L 548.319523 230.327444 
L 548.604911 230.492183 
L 548.890298 230.367088 
L 549.175686 229.955622 
L 549.603768 228.844375 
L 550.031849 227.108909 
L 550.459931 224.53541 
L 551.030706 219.348319 
L 551.601481 211.34206 
L 552.172256 199.308982 
L 552.743032 181.950917 
L 553.456501 151.708219 
L 554.455358 101.037197 
L 554.455358 101.037197 
" clip-path="url(#p674e502ce7)" style="fill: none; stroke: #10d1d1; stroke-width: 1.5; stroke-linecap: square"/>
   </g>
   <g id="line2d_39">
    <path d="M 411.904223 236.271404 
L 412.332305 233.894041 
L 412.760386 229.743105 
L 413.188468 222.743213 
L 413.616549 211.676704 
L 414.187325 189.749934 
L 415.043488 155.840784 
L 415.328875 151.397596 
L 415.471569 151.15488 
L 415.614263 152.220512 
L 415.899651 157.826784 
L 416.470426 177.00063 
L 417.183895 200.010812 
L 417.75467 211.010573 
L 418.182752 215.361041 
L 418.468139 216.905224 
L 418.753527 217.554043 
L 418.896221 217.584797 
L 419.038915 217.434487 
L 419.324302 216.610166 
L 419.60969 215.079714 
L 420.037772 211.394684 
L 420.465853 205.828134 
L 421.036628 194.876256 
L 421.607404 179.047654 
L 422.320873 151.899702 
L 423.747811 92.73778 
L 424.175893 84.535178 
L 424.318586 83.537719 
L 424.46128 83.457844 
L 424.603974 84.30246 
L 424.889362 88.717415 
L 425.317443 101.084815 
L 426.030912 129.476127 
L 427.029769 169.602602 
L 427.743238 187.125694 
L 428.456707 198.97958 
L 429.170177 206.726003 
L 429.883646 211.860496 
L 430.597115 215.436245 
L 432.880216 225.779268 
L 434.307154 233.657267 
L 434.87793 235.646277 
L 435.448705 236.808159 
L 436.01948 237.393417 
L 436.590256 237.622457 
L 437.161031 237.599468 
L 437.731806 237.364385 
L 438.302582 236.887793 
L 438.873357 236.063535 
L 439.444132 234.712065 
L 439.872214 233.167024 
L 440.300295 230.939991 
L 440.728377 227.757845 
L 441.156458 223.179645 
L 441.58454 216.616864 
L 442.155315 203.534532 
L 442.72609 183.715429 
L 443.296866 155.433514 
L 445.151885 52.079104 
L 445.294579 50.152877 
L 445.437273 49.774565 
L 445.579967 50.955819 
L 445.865354 57.790461 
L 446.293436 76.712028 
L 448.148456 172.661456 
L 448.861925 193.221748 
L 449.575394 206.477937 
L 450.288863 215.011801 
L 451.002332 221.011117 
L 452.001189 227.527322 
L 453.14274 233.649932 
L 453.713515 235.802446 
L 454.28429 237.161888 
L 454.855066 237.937343 
L 455.425841 238.324486 
L 456.13931 238.504836 
L 456.995473 238.479358 
L 457.851636 238.230868 
L 458.565105 237.785357 
L 459.135881 237.165511 
L 459.706656 236.174859 
L 460.134737 235.039651 
L 460.562819 233.389739 
L 460.9909 231.015545 
L 461.418982 227.610953 
L 461.847063 222.681993 
L 462.275145 215.624335 
L 462.84592 201.66704 
L 463.416695 180.863919 
L 463.987471 151.773507 
L 465.557103 60.760859 
L 465.84249 54.001604 
L 465.985184 52.775823 
L 466.127878 53.027779 
L 466.270572 54.742998 
L 466.55596 62.29935 
L 466.984041 81.499125 
L 468.696367 169.617425 
L 469.409836 191.42862 
L 470.123305 205.785309 
L 470.836774 215.421931 
L 471.692937 223.413365 
L 472.691794 230.38333 
L 473.405263 234.084912 
L 473.976039 236.113131 
L 474.546814 237.314558 
L 475.117589 237.99616 
L 475.688365 238.33955 
L 476.401834 238.497948 
L 477.257997 238.457632 
L 478.11416 238.201634 
L 478.827629 237.753111 
L 479.398404 237.134777 
L 479.969179 236.150029 
L 480.539955 234.570258 
L 480.968036 232.759622 
L 481.396118 230.157829 
L 481.824199 226.49127 
L 482.252281 221.230454 
L 482.823056 210.630244 
L 483.393831 194.497634 
L 483.964607 171.313648 
L 484.678076 132.102007 
L 485.676933 74.559776 
L 486.105014 60.581702 
L 486.390402 57.64161 
L 486.533096 58.227636 
L 486.818483 63.412855 
L 487.246565 79.608623 
L 488.245421 133.499079 
L 488.958891 165.86231 
L 489.67236 188.560475 
L 490.385829 203.630933 
L 491.099298 213.907577 
L 491.812767 221.357704 
L 492.66893 227.998699 
L 493.525093 233.041938 
L 494.095868 235.372847 
L 494.666644 236.879153 
L 495.237419 237.737225 
L 495.808194 238.163564 
L 496.521663 238.392607 
L 497.377826 238.4039 
L 498.233989 238.181138 
L 498.947459 237.767356 
L 499.518234 237.194257 
L 500.089009 236.285046 
L 500.659785 234.819673 
L 501.087866 233.152168 
L 501.515947 230.783937 
L 501.944029 227.398871 
L 502.37211 222.556691 
L 502.942886 212.879567 
L 503.513661 198.077891 
L 504.084436 176.604589 
L 504.797906 139.014716 
L 506.08215 68.242487 
L 506.367538 60.855443 
L 506.652925 58.710394 
L 506.795619 59.658312 
L 507.081007 65.418666 
L 507.509088 81.9695 
L 509.506802 176.579801 
L 510.220271 195.588108 
L 510.93374 208.331575 
L 511.647209 217.155848 
L 512.503372 224.752567 
L 513.359535 230.617579 
L 514.073004 234.231763 
L 514.64378 236.180001 
L 515.214555 237.319933 
L 515.78533 237.943542 
L 516.356106 238.263445 
L 517.069575 238.410775 
L 517.925738 238.337377 
L 518.781901 238.020163 
L 519.49537 237.478777 
L 520.066145 236.74063 
L 520.63692 235.552541 
L 521.207696 233.657745 
L 521.635777 231.51214 
L 522.063859 228.429329 
L 522.49194 224.029688 
L 523.062716 215.436651 
L 523.490797 205.839404 
L 524.061572 187.303763 
L 524.632348 161.527709 
L 525.631204 102.972024 
L 526.344674 67.88013 
L 526.630061 60.613406 
L 526.772755 59.154856 
L 526.915449 59.144872 
L 527.058143 60.448628 
L 527.34353 66.481489 
L 527.771612 82.282591 
L 528.627775 126.911115 
L 529.483938 166.491817 
L 530.197407 188.943928 
L 530.910876 203.94701 
L 531.624345 214.070459 
L 532.480508 222.481961 
L 533.336671 228.840091 
L 534.192834 233.627024 
L 534.763609 235.777913 
L 535.334385 237.085002 
L 535.90516 237.84288 
L 536.475935 238.231216 
L 537.189405 238.41828 
L 538.045567 238.388983 
L 538.90173 238.12882 
L 539.6152 237.666559 
L 540.185975 237.029992 
L 540.75675 236.014544 
L 541.327526 234.394886 
L 541.755607 232.545888 
L 542.183688 229.89121 
L 542.754464 224.596954 
L 543.182545 218.602181 
L 543.753321 206.644471 
L 544.324096 188.760028 
L 544.894871 163.625959 
L 545.751034 114.054767 
L 546.464503 74.771094 
L 546.892585 61.246321 
L 547.177972 58.476995 
L 547.320666 59.097137 
L 547.606054 64.258309 
L 548.034135 80.318002 
L 548.747605 118.175573 
L 549.603768 162.845747 
L 550.317237 186.353031 
L 551.030706 202.129986 
L 551.744175 212.646233 
L 552.457644 220.151258 
L 553.313807 227.002057 
L 554.16997 232.288287 
L 554.455358 233.671257 
L 554.455358 233.671257 
" clip-path="url(#p674e502ce7)" style="fill: none; stroke: #cd0707; stroke-width: 1.5; stroke-linecap: square"/>
   </g>
   <g id="patch_13">
    <path d="M 404.776667 238.52 
L 404.776667 36 
" style="fill: none; stroke: #000000; stroke-width: 0.8; stroke-linejoin: miter; stroke-linecap: square"/>
   </g>
   <g id="patch_14">
    <path d="M 561.582914 238.52 
L 561.582914 36 
" style="fill: none; stroke: #000000; stroke-width: 0.8; stroke-linejoin: miter; stroke-linecap: square"/>
   </g>
   <g id="patch_15">
    <path d="M 404.776667 238.52 
L 561.582914 238.52 
" style="fill: none; stroke: #000000; stroke-width: 0.8; stroke-linejoin: miter; stroke-linecap: square"/>
   </g>
   <g id="patch_16">
    <path d="M 404.776667 36 
L 561.582914 36 
" style="fill: none; stroke: #000000; stroke-width: 0.8; stroke-linejoin: miter; stroke-linecap: square"/>
   </g>
   <g id="text_24">
    <!-- $\gamma$ = 1 -->
    <g transform="translate(483.179791 43.578125) scale(0.1 -0.1)">
     <use xlink:href="#DejaVuSans-Oblique-3b3" transform="translate(0 0.09375)"/>
     <use xlink:href="#DejaVuSans-20" transform="translate(59.179688 0.09375)"/>
     <use xlink:href="#DejaVuSans-3d" transform="translate(90.966797 0.09375)"/>
     <use xlink:href="#DejaVuSans-20" transform="translate(174.755859 0.09375)"/>
     <use xlink:href="#DejaVuSans-31" transform="translate(206.542969 0.09375)"/>
    </g>
   </g>
  </g>
  <g id="text_25">
   <!-- Time -->
   <g transform="translate(273.319687 282.624375) scale(0.12 -0.12)">
    <defs>
     <path id="DejaVuSans-54" d="M -19 4666 
L 3928 4666 
L 3928 4134 
L 2272 4134 
L 2272 0 
L 1638 0 
L 1638 4134 
L -19 4134 
L -19 4666 
z
" transform="scale(0.015625)"/>
     <path id="DejaVuSans-69" d="M 603 3500 
L 1178 3500 
L 1178 0 
L 603 0 
L 603 3500 
z
M 603 4863 
L 1178 4863 
L 1178 4134 
L 603 4134 
L 603 4863 
z
" transform="scale(0.015625)"/>
     <path id="DejaVuSans-6d" d="M 3328 2828 
Q 3544 3216 3844 3400 
Q 4144 3584 4550 3584 
Q 5097 3584 5394 3201 
Q 5691 2819 5691 2113 
L 5691 0 
L 5113 0 
L 5113 2094 
Q 5113 2597 4934 2840 
Q 4756 3084 4391 3084 
Q 3944 3084 3684 2787 
Q 3425 2491 3425 1978 
L 3425 0 
L 2847 0 
L 2847 2094 
Q 2847 2600 2669 2842 
Q 2491 3084 2119 3084 
Q 1678 3084 1418 2786 
Q 1159 2488 1159 1978 
L 1159 0 
L 581 0 
L 581 3500 
L 1159 3500 
L 1159 2956 
Q 1356 3278 1631 3431 
Q 1906 3584 2284 3584 
Q 2666 3584 2933 3390 
Q 3200 3197 3328 2828 
z
" transform="scale(0.015625)"/>
     <path id="DejaVuSans-65" d="M 3597 1894 
L 3597 1613 
L 953 1613 
Q 991 1019 1311 708 
Q 1631 397 2203 397 
Q 2534 397 2845 478 
Q 3156 559 3463 722 
L 3463 178 
Q 3153 47 2828 -22 
Q 2503 -91 2169 -91 
Q 1331 -91 842 396 
Q 353 884 353 1716 
Q 353 2575 817 3079 
Q 1281 3584 2069 3584 
Q 2775 3584 3186 3129 
Q 3597 2675 3597 1894 
z
M 3022 2063 
Q 3016 2534 2758 2815 
Q 2500 3097 2075 3097 
Q 1594 3097 1305 2825 
Q 1016 2553 972 2059 
L 3022 2063 
z
" transform="scale(0.015625)"/>
    </defs>
    <use xlink:href="#DejaVuSans-54"/>
    <use xlink:href="#DejaVuSans-69" x="57.958984"/>
    <use xlink:href="#DejaVuSans-6d" x="85.742188"/>
    <use xlink:href="#DejaVuSans-65" x="183.154297"/>
   </g>
  </g>
  <g id="text_26">
   <!-- Species abundance -->
   <g transform="translate(20.638125 202.370625) rotate(-90) scale(0.12 -0.12)">
    <defs>
     <path id="DejaVuSans-53" d="M 3425 4513 
L 3425 3897 
Q 3066 4069 2747 4153 
Q 2428 4238 2131 4238 
Q 1616 4238 1336 4038 
Q 1056 3838 1056 3469 
Q 1056 3159 1242 3001 
Q 1428 2844 1947 2747 
L 2328 2669 
Q 3034 2534 3370 2195 
Q 3706 1856 3706 1288 
Q 3706 609 3251 259 
Q 2797 -91 1919 -91 
Q 1588 -91 1214 -16 
Q 841 59 441 206 
L 441 856 
Q 825 641 1194 531 
Q 1563 422 1919 422 
Q 2459 422 2753 634 
Q 3047 847 3047 1241 
Q 3047 1584 2836 1778 
Q 2625 1972 2144 2069 
L 1759 2144 
Q 1053 2284 737 2584 
Q 422 2884 422 3419 
Q 422 4038 858 4394 
Q 1294 4750 2059 4750 
Q 2388 4750 2728 4690 
Q 3069 4631 3425 4513 
z
" transform="scale(0.015625)"/>
     <path id="DejaVuSans-70" d="M 1159 525 
L 1159 -1331 
L 581 -1331 
L 581 3500 
L 1159 3500 
L 1159 2969 
Q 1341 3281 1617 3432 
Q 1894 3584 2278 3584 
Q 2916 3584 3314 3078 
Q 3713 2572 3713 1747 
Q 3713 922 3314 415 
Q 2916 -91 2278 -91 
Q 1894 -91 1617 61 
Q 1341 213 1159 525 
z
M 3116 1747 
Q 3116 2381 2855 2742 
Q 2594 3103 2138 3103 
Q 1681 3103 1420 2742 
Q 1159 2381 1159 1747 
Q 1159 1113 1420 752 
Q 1681 391 2138 391 
Q 2594 391 2855 752 
Q 3116 1113 3116 1747 
z
" transform="scale(0.015625)"/>
     <path id="DejaVuSans-63" d="M 3122 3366 
L 3122 2828 
Q 2878 2963 2633 3030 
Q 2388 3097 2138 3097 
Q 1578 3097 1268 2742 
Q 959 2388 959 1747 
Q 959 1106 1268 751 
Q 1578 397 2138 397 
Q 2388 397 2633 464 
Q 2878 531 3122 666 
L 3122 134 
Q 2881 22 2623 -34 
Q 2366 -91 2075 -91 
Q 1284 -91 818 406 
Q 353 903 353 1747 
Q 353 2603 823 3093 
Q 1294 3584 2113 3584 
Q 2378 3584 2631 3529 
Q 2884 3475 3122 3366 
z
" transform="scale(0.015625)"/>
     <path id="DejaVuSans-73" d="M 2834 3397 
L 2834 2853 
Q 2591 2978 2328 3040 
Q 2066 3103 1784 3103 
Q 1356 3103 1142 2972 
Q 928 2841 928 2578 
Q 928 2378 1081 2264 
Q 1234 2150 1697 2047 
L 1894 2003 
Q 2506 1872 2764 1633 
Q 3022 1394 3022 966 
Q 3022 478 2636 193 
Q 2250 -91 1575 -91 
Q 1294 -91 989 -36 
Q 684 19 347 128 
L 347 722 
Q 666 556 975 473 
Q 1284 391 1588 391 
Q 1994 391 2212 530 
Q 2431 669 2431 922 
Q 2431 1156 2273 1281 
Q 2116 1406 1581 1522 
L 1381 1569 
Q 847 1681 609 1914 
Q 372 2147 372 2553 
Q 372 3047 722 3315 
Q 1072 3584 1716 3584 
Q 2034 3584 2315 3537 
Q 2597 3491 2834 3397 
z
" transform="scale(0.015625)"/>
     <path id="DejaVuSans-61" d="M 2194 1759 
Q 1497 1759 1228 1600 
Q 959 1441 959 1056 
Q 959 750 1161 570 
Q 1363 391 1709 391 
Q 2188 391 2477 730 
Q 2766 1069 2766 1631 
L 2766 1759 
L 2194 1759 
z
M 3341 1997 
L 3341 0 
L 2766 0 
L 2766 531 
Q 2569 213 2275 61 
Q 1981 -91 1556 -91 
Q 1019 -91 701 211 
Q 384 513 384 1019 
Q 384 1609 779 1909 
Q 1175 2209 1959 2209 
L 2766 2209 
L 2766 2266 
Q 2766 2663 2505 2880 
Q 2244 3097 1772 3097 
Q 1472 3097 1187 3025 
Q 903 2953 641 2809 
L 641 3341 
Q 956 3463 1253 3523 
Q 1550 3584 1831 3584 
Q 2591 3584 2966 3190 
Q 3341 2797 3341 1997 
z
" transform="scale(0.015625)"/>
     <path id="DejaVuSans-62" d="M 3116 1747 
Q 3116 2381 2855 2742 
Q 2594 3103 2138 3103 
Q 1681 3103 1420 2742 
Q 1159 2381 1159 1747 
Q 1159 1113 1420 752 
Q 1681 391 2138 391 
Q 2594 391 2855 752 
Q 3116 1113 3116 1747 
z
M 1159 2969 
Q 1341 3281 1617 3432 
Q 1894 3584 2278 3584 
Q 2916 3584 3314 3078 
Q 3713 2572 3713 1747 
Q 3713 922 3314 415 
Q 2916 -91 2278 -91 
Q 1894 -91 1617 61 
Q 1341 213 1159 525 
L 1159 0 
L 581 0 
L 581 4863 
L 1159 4863 
L 1159 2969 
z
" transform="scale(0.015625)"/>
     <path id="DejaVuSans-75" d="M 544 1381 
L 544 3500 
L 1119 3500 
L 1119 1403 
Q 1119 906 1312 657 
Q 1506 409 1894 409 
Q 2359 409 2629 706 
Q 2900 1003 2900 1516 
L 2900 3500 
L 3475 3500 
L 3475 0 
L 2900 0 
L 2900 538 
Q 2691 219 2414 64 
Q 2138 -91 1772 -91 
Q 1169 -91 856 284 
Q 544 659 544 1381 
z
M 1991 3584 
L 1991 3584 
z
" transform="scale(0.015625)"/>
     <path id="DejaVuSans-6e" d="M 3513 2113 
L 3513 0 
L 2938 0 
L 2938 2094 
Q 2938 2591 2744 2837 
Q 2550 3084 2163 3084 
Q 1697 3084 1428 2787 
Q 1159 2491 1159 1978 
L 1159 0 
L 581 0 
L 581 3500 
L 1159 3500 
L 1159 2956 
Q 1366 3272 1645 3428 
Q 1925 3584 2291 3584 
Q 2894 3584 3203 3211 
Q 3513 2838 3513 2113 
z
" transform="scale(0.015625)"/>
     <path id="DejaVuSans-64" d="M 2906 2969 
L 2906 4863 
L 3481 4863 
L 3481 0 
L 2906 0 
L 2906 525 
Q 2725 213 2448 61 
Q 2172 -91 1784 -91 
Q 1150 -91 751 415 
Q 353 922 353 1747 
Q 353 2572 751 3078 
Q 1150 3584 1784 3584 
Q 2172 3584 2448 3432 
Q 2725 3281 2906 2969 
z
M 947 1747 
Q 947 1113 1208 752 
Q 1469 391 1925 391 
Q 2381 391 2643 752 
Q 2906 1113 2906 1747 
Q 2906 2381 2643 2742 
Q 2381 3103 1925 3103 
Q 1469 3103 1208 2742 
Q 947 2381 947 1747 
z
" transform="scale(0.015625)"/>
    </defs>
    <use xlink:href="#DejaVuSans-53"/>
    <use xlink:href="#DejaVuSans-70" x="63.476562"/>
    <use xlink:href="#DejaVuSans-65" x="126.953125"/>
    <use xlink:href="#DejaVuSans-63" x="188.476562"/>
    <use xlink:href="#DejaVuSans-69" x="243.457031"/>
    <use xlink:href="#DejaVuSans-65" x="271.240234"/>
    <use xlink:href="#DejaVuSans-73" x="332.763672"/>
    <use xlink:href="#DejaVuSans-20" x="384.863281"/>
    <use xlink:href="#DejaVuSans-61" x="416.650391"/>
    <use xlink:href="#DejaVuSans-62" x="477.929688"/>
    <use xlink:href="#DejaVuSans-75" x="541.40625"/>
    <use xlink:href="#DejaVuSans-6e" x="604.785156"/>
    <use xlink:href="#DejaVuSans-64" x="668.164062"/>
    <use xlink:href="#DejaVuSans-61" x="731.640625"/>
    <use xlink:href="#DejaVuSans-6e" x="792.919922"/>
    <use xlink:href="#DejaVuSans-63" x="856.298828"/>
    <use xlink:href="#DejaVuSans-65" x="911.279297"/>
   </g>
  </g>
  <g id="legend_1">
   <g id="line2d_40">
    <path style="fill: none; stroke: #10d1d1; stroke-width: 1.5; stroke-linecap: square"/>
   </g>
   <g id="text_27">
    <!-- n1 -->
    <g transform="translate(265.3 -17.961563) scale(0.1 -0.1)">
     <use xlink:href="#DejaVuSans-6e"/>
     <use xlink:href="#DejaVuSans-31" x="63.378906"/>
    </g>
   </g>
   <g id="line2d_41">
    <path style="fill: none; stroke: #cd0707; stroke-width: 1.5; stroke-linecap: square"/>
   </g>
   <g id="text_28">
    <!-- n2 -->
    <g transform="translate(326 -17.961563) scale(0.1 -0.1)">
     <use xlink:href="#DejaVuSans-6e"/>
     <use xlink:href="#DejaVuSans-32" x="63.378906"/>
    </g>
   </g>
  </g>
 </g>
 <defs>
  <clipPath id="pb134154d25">
   <rect x="55.33" y="36" width="156.806248" height="202.52"/>
  </clipPath>
  <clipPath id="p297918189d">
   <rect x="230.053333" y="36" width="156.806248" height="202.52"/>
  </clipPath>
  <clipPath id="p674e502ce7">
   <rect x="404.776667" y="36" width="156.806248" height="202.52"/>
  </clipPath>
 </defs>
</svg>
